<?xml version="1.0" encoding="UTF-8"?>
<svg width="24" height="24" version="1.1" viewBox="0 0 24 24" xmlns="http://www.w3.org/2000/svg">
 <path d="m15.305 2c2.5 0 4.5 2 4.5 4.5 0 0.88-0.25 1.71-0.69 2.4l3.08 3.1-1.39 1.39-3.12-3.07c-0.69 0.43-1.51 0.68-2.38 0.68-2.5 0-4.5-2-4.5-4.5s2-4.5 4.5-4.5m0 2a2.5 2.5 0 0 0-2.5 2.5 2.5 2.5 0 0 0 2.5 2.5 2.5 2.5 0 0 0 2.5-2.5 2.5 2.5 0 0 0-2.5-2.5m-8 10.5-3.5 4.5h14l-4.5-6-3.5 4.5-2.5-3m12.5 5.5a2 2 0 0 1-2 2h-14a2 2 0 0 1-2-2v-14a2 2 0 0 1 2-2h5.5c-0.32 0.77-0.5 1.61-0.5 2.5a6.5 6.5 0 0 0 6.5 6.5c0.68 0 1.34-0.11 1.96-0.3l2.54 2.54z" fill="#fff"/>
</svg>
