<svg width="24" height="24" version="1.1" xmlns="http://www.w3.org/2000/svg"><path d="m5 21q-0.825 0-1.4125-0.5875-0.5875-0.5875-0.5875-1.4125v-14q0-0.825 0.5875-1.4125 0.5875-0.5875 1.4125-0.5875h5v2h-5v14h14v-5.35l2 2v3.35q0 0.825-0.5875 1.4125t-1.4125 0.5875zm1-4 3-4 2.25 3 3-4 3.75 5zm15.55-3.6-3.1-3.1q-0.525 0.35-1.125 0.525t-1.275 0.175q-1.85 0-3.15-1.3125t-1.3-3.1875 1.3125-3.1875 3.1875-1.3125 3.1875 1.3125q1.3125 1.3125 1.3125 3.1875 0 0.675-0.2 1.3-0.2 0.625-0.5 1.15l3.05 3.05zm-5.45-4.4q1.05 0 1.775-0.725t0.725-1.775-0.725-1.775-1.775-0.725-1.775 0.725-0.725 1.775 0.725 1.775 1.775 0.725z" fill="#ea4335"/></svg>
