<?xml version="1.0" standalone="no"?>
<!DOCTYPE svg PUBLIC "-//W3C//DTD SVG 20010904//EN"
 "http://www.w3.org/TR/2001/REC-SVG-20010904/DTD/svg10.dtd">
<svg version="1.0" xmlns="http://www.w3.org/2000/svg"
 width="700.000000pt" height="700.000000pt" viewBox="0 0 700.000000 700.000000"
 preserveAspectRatio="xMidYMid meet">
<metadata>
Created by potrace 1.11, written by Peter Selinger 2001-2013
</metadata>
<g transform="translate(0.000000,700.000000) scale(0.100000,-0.100000)"
fill="#000000" stroke="none">
<path d="M4405 6412 c-464 -49 -847 -306 -1052 -707 -62 -122 -94 -218 -129
-390 -12 -64 -16 -295 -5 -371 19 -134 21 -146 57 -253 177 -533 666 -892
1219 -895 251 -2 406 33 616 138 l106 53 259 -254 c142 -140 345 -339 450
-444 106 -104 195 -189 198 -189 4 0 97 90 207 200 l201 200 -419 421 c-230
232 -432 435 -450 451 l-32 30 19 31 c81 137 146 318 165 457 3 25 8 57 11 73
13 63 7 255 -12 367 -41 254 -169 504 -353 690 -125 126 -210 188 -365 264
-121 61 -230 94 -401 122 -37 6 -249 11 -290 6z m341 -617 c99 -31 188 -83
270 -158 257 -236 307 -629 117 -926 -106 -165 -303 -296 -493 -327 -64 -10
-209 -7 -261 6 -24 6 -54 13 -67 16 -12 2 -48 16 -80 30 -276 122 -446 390
-437 686 2 51 5 102 8 113 33 134 65 208 130 297 184 256 507 361 813 263z"/>
<path d="M1109 5829 c-233 -25 -427 -183 -501 -409 l-22 -65 -1 -2120 c-1
-1716 1 -2132 11 -2185 42 -208 206 -382 419 -446 57 -17 164 -18 2195 -18
l2135 -1 68 22 c199 63 353 224 403 423 15 57 17 152 19 785 1 542 -2 725 -11
740 -6 11 -174 183 -374 382 l-362 362 -40 -15 c-54 -19 -226 -54 -308 -62
-87 -9 -380 -8 -455 1 -425 54 -840 263 -1131 570 -83 87 -224 267 -224 285 0
6 -4 12 -8 14 -5 2 -31 44 -58 93 -257 467 -307 998 -144 1510 18 55 37 106
43 113 5 7 7 15 3 19 -8 8 -1582 10 -1657 2z m3071 -2944 c127 -170 242 -323
254 -340 13 -16 69 -91 125 -165 55 -74 109 -146 120 -160 10 -14 118 -158
239 -320 122 -162 225 -299 229 -305 38 -45 95 -126 91 -130 -6 -6 -4059 -7
-4065 -1 -2 2 2 10 9 17 7 8 218 277 468 599 250 322 473 609 496 638 l43 52
362 -435 c346 -415 364 -435 380 -418 9 10 146 185 304 388 298 384 330 425
355 455 8 10 47 60 85 110 39 51 108 140 154 199 46 58 89 114 95 123 6 10 14
14 17 10 4 -4 111 -146 239 -317z"/>
</g>
</svg>
